<?xml version="1.0" standalone="no"?>
<!DOCTYPE svg PUBLIC "-//W3C//DTD SVG 20010904//EN"
 "http://www.w3.org/TR/2001/REC-SVG-20010904/DTD/svg10.dtd">
<svg version="1.0" xmlns="http://www.w3.org/2000/svg"
 width="500.000000pt" height="500.000000pt" viewBox="0 0 500.000000 500.000000"
 preserveAspectRatio="xMidYMid meet" style="background-color:white">

<g transform="translate(0.000000,500.000000) scale(0.100000,-0.100000)"
fill="#000000" stroke="none">
<path d="M3996 3901 c-84 -22 -110 -48 -120 -119 -9 -67 -26 -512 -26 -692 0
-80 -5 -165 -11 -190 -23 -103 -249 -521 -416 -771 -49 -74 -141 -214 -203
-312 -129 -205 -220 -331 -249 -347 -32 -17 -72 10 -198 131 -62 60 -119 109
-126 109 -35 0 -37 25 -7 118 17 50 36 129 44 174 30 173 55 482 58 700 1 169
-8 196 -93 272 -202 182 -549 253 -1624 331 l-350 26 -123 -128 c-169 -176
-280 -309 -308 -368 -16 -34 -24 -68 -24 -105 0 -79 6 -84 83 -76 41 4 68 3
72 -4 3 -5 -1 -56 -11 -112 -14 -84 -16 -143 -11 -342 6 -256 24 -408 56 -481
32 -73 101 -166 196 -264 162 -168 263 -232 407 -260 l93 -18 6 -459 c7 -451
16 -590 44 -644 24 -46 52 -64 113 -68 84 -6 88 2 63 124 -27 135 -39 311 -46
690 l-7 321 211 7 c310 10 412 32 637 140 194 93 338 199 358 264 17 52 55 28
201 -122 141 -146 225 -190 314 -165 36 10 63 29 122 88 82 83 146 175 264
381 43 74 133 214 200 310 159 226 216 321 244 406 12 38 62 152 111 254 49
102 96 212 105 245 13 47 19 136 25 400 8 339 12 389 34 382 30 -10 58 -126
75 -322 6 -66 14 -139 17 -162 l5 -43 120 0 c136 0 139 -2 89 -75 -46 -67 -52
-90 -31 -117 10 -13 46 -38 80 -57 37 -21 61 -41 61 -52 0 -9 -18 -29 -40 -44
-57 -40 -100 -91 -100 -121 0 -16 20 -46 60 -89 33 -35 60 -71 60 -79 0 -21
-61 -63 -154 -106 -122 -56 -142 -82 -330 -432 -121 -227 -198 -360 -386 -668
-62 -102 -131 -222 -153 -268 l-40 -83 16 -64 c32 -127 127 -320 309 -621 60
-99 117 -203 126 -229 22 -60 62 -84 159 -92 55 -4 71 -2 81 10 16 19 9 35
-123 257 -52 88 -126 217 -164 287 -76 139 -201 403 -201 425 0 22 162 307
259 457 101 155 204 332 316 541 85 159 150 263 187 297 13 13 55 38 94 57
138 67 169 113 184 277 6 58 21 148 35 200 37 140 35 158 -22 210 -76 68 -77
72 -49 114 28 40 41 123 28 170 -10 34 -51 54 -118 54 -66 1 -147 20 -166 39
-11 10 -25 59 -38 125 -34 175 -87 327 -132 374 -18 20 -31 23 -87 22 -36 0
-97 -8 -135 -18z m-2951 -771 c256 -17 673 -60 837 -85 305 -47 547 -113 609
-165 l34 -28 3 -168 c4 -194 -12 -511 -34 -664 -24 -167 -98 -312 -221 -433
-74 -72 -113 -99 -229 -154 -188 -89 -435 -126 -693 -104 -323 27 -442 75
-621 251 -108 106 -140 159 -165 280 -23 109 -34 343 -24 496 15 224 46 325
135 439 80 102 103 177 67 217 -9 10 -28 18 -42 18 -40 0 -58 15 -42 34 23 27
78 56 123 65 60 12 91 12 263 1z"/>
<path d="M1530 2883 c-48 -18 -66 -75 -34 -107 17 -18 79 -21 118 -6 31 11 49
44 41 71 -11 33 -83 57 -125 42z"/>
<path d="M2184 2629 c-27 -14 -45 -46 -97 -172 -91 -219 -242 -388 -450 -502
-105 -58 -198 -84 -346 -99 -126 -13 -136 -15 -158 -40 -25 -30 -23 -66 4 -98
59 -67 383 -31 563 63 257 134 515 434 604 701 32 94 32 103 1 133 -26 27 -81
33 -121 14z"/>
<path d="M956 2394 c-25 -24 -20 -86 7 -112 38 -36 104 -23 126 25 17 36 14
52 -15 78 -32 29 -94 34 -118 9z"/>
</g>
</svg>
